<?xml version="1.0" encoding="utf-8"?>
<!-- Generator: Adobe Illustrator 21.0.0, SVG Export Plug-In . SVG Version: 6.00 Build 0)  -->
<svg version="1.1" id="Capa_1" xmlns="http://www.w3.org/2000/svg" xmlns:xlink="http://www.w3.org/1999/xlink" x="0px" y="0px"
	 viewBox="0 0 212.7 30.5" style="enable-background:new 0 0 212.7 30.5;" xml:space="preserve">
<style type="text/css">
	.st0{fill:#4949E7;}
	.st1{fill:#5F5FF6;}
	.st2{opacity:0.56;}
	.st3{fill:#8080F1;}
	.st4{fill:#F8FAFB;}
</style>
<title>Mesa de trabajo 76</title>
<g id="texto">
	<polyline class="st0" points="212.7,30.5 1,30.4 0,28.5 209.8,28.6 211.1,29.4 	"/>
	<polygon class="st1" points="5.9,0 209.3,0.8 211.1,29.4 0,28.5 	"/>
	<g class="st2">
		<path class="st3" d="M203.8,21.8c-2.8-2.8-7-3.5-10.7-4.1c-6.2-1-12.5-1.5-18.9-1.9c-25.6-1.6-51.4,0.1-77,1.3
			c-27.6,1.2-55.3,1.7-82.5-3.4c29.7-5.5,60.1,0.3,90-4c1-0.1,0.9-1.7,0-1.9c-18.8-5-38.2-6.2-57.6-6.5L17,1.1l-11.3,0L5.3,3
			l5.1,0.1c10.3,0.3,20.6,0.3,31.1,0.3c19.3,0.2,38.6,0.9,57.6,5.2c-29.9,3.2-60.2-2.5-89.7,4.2c-0.6,0-1,0.5-1,1c0,0.6,0.5,1,1,1
			c44.8,9.6,90.4,3.1,135.7,2.4c11.6-0.2,23.1,0.1,34.6,1c5.5,0.5,11.2,0.8,16.5,2.1c3.6,0.9,10.9,4.3,6,9l3.4,0.1l0,0
			C207,26.8,205.6,23.7,203.8,21.8z"/>
		<path class="st3" d="M192.6,25.5c-2.3-2.1-5.8-2.4-8.7-2.9c-4.4-0.8-8.9-1.3-13.4-1.5c-8.9-0.4-17.9,0.3-26.6,2.2
			c-4.1,0.9-8.4,2.5-10.5,5.7l2.4,0c3.5-3.8,11.3-4.5,15.9-5.1c6.2-0.8,12.5-1.1,18.7-0.9c5.9,0.2,12.3,0.7,17.9,2.4
			c1.9,0.6,3.4,2,4.3,3.7l2.6,0C194.6,27.8,193.7,26.5,192.6,25.5z"/>
		<path class="st3" d="M125.5,28.3c-41.3-3.6-82.9-8.1-124.4-4.8l-0.4,2c36.8-2.9,73.8,0.2,110.5,3.5l15.2,0
			C126.3,28.6,125.9,28.3,125.5,28.3z"/>
		<path class="st3" d="M203.8,13.7c0,2.3,2.3,2.7,4.1,3l2.5,0.2l-0.1-2c-2.1-0.3-3.7-0.9-3.4-2.2c0.3-1.3,1.5-0.9,3.3-1.1l-0.1-2.1
			C206.3,10.4,203.8,11.5,203.8,13.7z"/>
		<path class="st3" d="M122.3,2.8c-0.5,2.7,2.1,3.3,4.1,3.7c5.1,1,10.4,1.5,15.5,2c11.2,1,22.5,1.3,33.7,1.4l16.3,0
			c3.6,0,7.6,0.6,10.5-2c0.4-0.4,0.4-1,0.1-1.4c-0.1-0.1-0.2-0.2-0.3-0.2c-11.2-6.4-25-0.6-36.7-4.8l2-0.9l-4.1,0l-0.5,0.5
			c-0.4,0.4-0.4,1-0.1,1.4c0.1,0.1,0.2,0.2,0.3,0.2c11.5,5.1,25.5-0.6,36.9,4.6c-3.1,1.3-7.8,0.5-10.8,0.5l-11.5-0.1
			c-8-0.1-16-0.2-24.1-0.6S137,6,128.8,4.7l-2.9-0.4c-0.4-2,0.2-3,1.6-3.2l1.4-0.6l-5.3,0C122.9,1.1,122.4,1.9,122.3,2.8z"/>
	</g>
	<polygon class="st0" points="209.3,0.8 211.1,3.1 212.7,30.5 211.1,29.4 	"/>
	<path class="st4" d="M26.7,9.4l4,0c1.4-0.1,2.7,0.9,2.8,2.4c0,0.1,0,0.2,0,0.2c0,1.4-1,3.4-3.9,3.4l-2.3,0l-0.7,3.3l-2-0.2
		L26.7,9.4z M31.5,12.2c0-0.6-0.5-1.1-1.1-1.1c0,0-0.1,0-0.1,0l-1.9-0.1l-0.6,2.6l2.1,0.2c0.8,0.1,1.5-0.6,1.6-1.4
		C31.5,12.2,31.5,12.2,31.5,12.2z"/>
	<path class="st4" d="M37.7,15.4l-1.6-0.1l-0.8,3.5l-2-0.2l2.1-9.4l4,0c1.5-0.1,2.8,1,2.9,2.5c0,0.1,0,0.2,0,0.3
		c0,1.6-1.1,2.9-2.6,3.2l1.2,3.5l-2.2,0L37.7,15.4z M40.2,12.3c0-0.6-0.5-1.1-1.1-1.1c0,0-0.1,0-0.1,0l-2-0.2l-0.6,2.6l2.1,0.2
		c0.8,0.1,1.6-0.4,1.7-1.3C40.2,12.4,40.2,12.3,40.2,12.3L40.2,12.3z"/>
	<path class="st4" d="M48.3,9.3c2.6,0,4.6,1.6,4.6,4.2c0.1,3-2.3,5.4-5.3,5.5c0,0-0.1,0-0.1,0c-2.6,0-4.6-1.6-4.6-4.3
		C42.9,11.7,45.3,9.3,48.3,9.3C48.3,9.3,48.3,9.3,48.3,9.3z M48.1,11.1c-1.9,0.1-3.3,1.6-3.3,3.5c0,0,0,0,0,0
		c-0.1,1.4,1,2.5,2.4,2.6c0.1,0,0.1,0,0.2,0c1.9-0.1,3.3-1.6,3.3-3.5c0,0,0,0,0,0c0.1-1.4-1-2.5-2.4-2.6
		C48.3,11.1,48.2,11.1,48.1,11.1z"/>
	<path class="st4" d="M62.7,12l-4.1,6.8l-0.9-0.1l-1.1-6.8l-1.5,6.8l-2-0.2l2.1-9.4l2.7,0l1,6l3.7-5.9l2.9,0l-2.2,9.6l-2-0.2
		L62.7,12z"/>
	<path class="st4" d="M70.9,9.4c2.6,0,4.6,1.6,4.6,4.2c0.1,3-2.3,5.4-5.3,5.5c0,0-0.1,0-0.1,0c-2.6,0-4.6-1.6-4.6-4.3
		C65.5,11.8,67.9,9.4,70.9,9.4C70.9,9.4,70.9,9.4,70.9,9.4z M70.8,11.2c-1.9,0.1-3.3,1.6-3.3,3.5c0,0,0,0,0,0
		c-0.1,1.4,1,2.5,2.4,2.6c0.1,0,0.1,0,0.2,0c1.9-0.1,3.3-1.6,3.3-3.5c0,0,0,0,0,0c0.1-1.4-0.9-2.6-2.3-2.7
		C71,11.1,70.9,11.1,70.8,11.2L70.8,11.2z"/>
	<path class="st4" d="M79.2,11.3l-2.7,0l0.4-1.8l7.4,0.1l-0.4,1.8l-2.7,0L79.5,19l-2-0.2L79.2,11.3z"/>
	<path class="st4" d="M85.7,9.6l2,0.2l-2.1,9.4l-2-0.2L85.7,9.6z"/>
	<path class="st4" d="M93.3,9.5c2.6,0,4.6,1.6,4.6,4.2c0.1,3-2.3,5.4-5.3,5.5c0,0-0.1,0-0.1,0c-2.6,0-4.6-1.6-4.6-4.3
		C87.9,11.9,90.3,9.5,93.3,9.5C93.3,9.5,93.3,9.5,93.3,9.5z M93.2,11.3c-1.9,0.1-3.3,1.6-3.3,3.5c0,0,0,0,0,0
		c-0.1,1.4,1,2.5,2.4,2.6c0.1,0,0.1,0,0.2,0c1.9-0.1,3.3-1.6,3.3-3.5c0,0,0,0,0,0c0.1-1.4-0.9-2.6-2.3-2.7
		C93.4,11.2,93.3,11.2,93.2,11.3L93.2,11.3z"/>
	<path class="st4" d="M101.5,12.4L100,19l-2-0.2l2.2-9.3l2,0.2l2.9,6.4l1.5-6.4l2,0.2l-2.1,9.4l-1.9-0.1L101.5,12.4z"/>
	<path class="st4" d="M113.9,9.7l6.6,0l-0.4,1.7l-4.6,0l-0.5,2.1l4.5,0l-0.4,1.7l-4.5,0l-0.5,2.2l4.6,0l-0.3,1.7l-6.6,0L113.9,9.7z"
		/>
	<path class="st4" d="M124.5,15.8l-3.1,3.3l-2.4,0l4.5-4.9l-2.2-4.5l2.2,0l1.5,3.1l2.7-3.1l2.5,0l-4.3,4.7l2.4,4.7l-2.2,0
		L124.5,15.8z"/>
	<path class="st4" d="M133.3,11.5l-2.7,0l0.4-1.8l7.4,0.1l-0.4,1.8l-2.7,0l-1.7,7.6l-2-0.2L133.3,11.5z"/>
	<path class="st4" d="M139.6,9.8l6.6,0l-0.4,1.7l-4.6,0l-0.5,2.1l4.5,0l-0.4,1.7l-4.5,0l-0.5,2.2l4.6,0l-0.3,1.7l-6.6,0L139.6,9.8z"
		/>
	<path class="st4" d="M149.1,12.6l-1.5,6.6l-2-0.2l2.1-9.4l2,0.2l2.9,6.4l1.5-6.4l2,0.2l-2.1,9.4l-1.9-0.1L149.1,12.6z"/>
	<path class="st4" d="M165.7,13.9c0,2.4-1.7,5.3-6.1,5.3l-3.7,0l2.1-9.4l3.6,0c2.2-0.1,4,1.7,4.1,3.9
		C165.7,13.8,165.7,13.9,165.7,13.9z M163.5,14.1c0-1.3-0.9-2.3-2.2-2.4c0,0-0.1,0-0.1,0l-1.6-0.1l-1.3,5.8l1.6,0.1
		c1.9,0.1,3.5-1.2,3.7-3.1C163.5,14.3,163.5,14.2,163.5,14.1z"/>
	<path class="st4" d="M168.1,9.9l6.6,0l-0.4,1.7l-4.6,0l-0.5,2.1l4.5,0l-0.4,1.7l-4.5,0l-0.5,2.2l4.6,0l-0.3,1.7l-6.6,0L168.1,9.9z"
		/>
	<path class="st4" d="M183.8,14c0,2.4-1.7,5.3-6.1,5.3l-3.7,0l2.1-9.4l3.6,0c2.2-0.1,4,1.7,4.1,3.9C183.8,13.9,183.8,13.9,183.8,14z
		 M181.7,14.2c0-1.3-0.9-2.3-2.2-2.4c0,0-0.1,0-0.1,0l-1.6-0.1l-1.3,5.8l1.6,0.1c1.9,0.2,3.5-1.1,3.7-3
		C181.8,14.4,181.8,14.3,181.7,14.2L181.7,14.2z"/>
	<path class="st4" d="M185.4,17.2c0.6,0,1,0.4,1,1c0,0,0,0.1,0,0.1c0,0.7-0.5,1.2-1.2,1.2c0,0,0,0,0,0c-0.6,0-1-0.4-1-1
		c0,0,0-0.1,0-0.1C184.2,17.8,184.7,17.3,185.4,17.2z M186,10l2.1,0l-1.7,6.4l-1.6-0.1L186,10z"/>
	<path class="st0" d="M11.2,3.4C11,2.7,10.4,2.3,9.7,2.3l-0.5,0C8.5,2.4,8,3.1,8.2,3.8c0,0.1,0.1,0.3,0.2,0.4c0.3,0.6,1,1,1.7,0.9
		c0.7-0.1,1.3-0.7,1.2-1.4C11.3,3.6,11.3,3.5,11.2,3.4z"/>
	<path class="st0" d="M205.9,4.1c-0.2-0.7-0.8-1.2-1.5-1.1l-0.5,0c-0.7,0.1-1.2,0.8-1,1.5c0,0.1,0.1,0.3,0.2,0.4
		c0.3,0.6,1,1,1.7,0.9c0.7-0.1,1.3-0.7,1.2-1.4C206,4.4,206,4.3,205.9,4.1z"/>
	<path class="st0" d="M10.7,24.2c-0.2-0.7-0.8-1.2-1.5-1.1l-0.5,0c-0.7,0.1-1.2,0.8-1,1.5c0,0.1,0.1,0.3,0.2,0.4
		c0.3,0.6,1,1,1.7,0.9c0.7-0.1,1.3-0.7,1.2-1.4C10.7,24.4,10.7,24.3,10.7,24.2z"/>
	<path class="st0" d="M205.8,25c-0.2-0.7-0.8-1.2-1.5-1.1l-0.5,0c-0.7,0.1-1.2,0.8-1,1.5c0,0.1,0.1,0.3,0.2,0.4c0.3,0.6,1,1,1.7,0.9
		c0.7-0.1,1.3-0.7,1.2-1.4C205.9,25.2,205.9,25.1,205.8,25z"/>
</g>
</svg>
