<svg xmlns="http://www.w3.org/2000/svg" viewBox="0 0 212.2 45.2"><title>Mesa de trabajo 76</title><g id="texto"><polyline points="212.2 29.4 1.1 45.2 0 43.4 209.2 27.7 210.6 28.4" style="fill:#4949e7"/><polygon points="3.7 14.5 206.6 0 210.6 28.4 0 43.4 3.7 14.5" style="fill:#5f5ff6"/><g style="opacity:0.56"><path d="M202.7,21.4c-3-2.6-7.2-3-11-3.3-6.3-.5-12.6-.6-19-.5-25.7.3-51.2,4-76.7,7.1-27.4,3.3-55,5.9-82.5,2.8,29.2-7.7,60-4.2,89.4-10.7,1-.2.8-1.8-.1-1.9-19.1-3.6-38.6-3.3-57.9-2.2l-30,2.1-11.3.9-.2,1.8,5.1-.3c10.3-.5,20.6-1.3,31-2,19.3-1.3,38.6-2,57.8.9C67.7,21.5,37.1,18.1,8.2,27A1,1,0,0,0,8.4,29c45.4,6.2,90.4-3.7,135.5-7.8a345.1,345.1,0,0,1,34.6-1.6c5.5.1,11.2,0,16.6.9,3.7.6,11.2,3.5,6.7,8.5l3.4-.2h0C206.3,26.1,204.7,23.1,202.7,21.4Z" style="fill:#8080f1"/><path d="M191.8,25.9c-2.4-1.9-6-2-8.9-2.2a100.9,100.9,0,0,0-13.5-.5A105.8,105.8,0,0,0,143,27.4c-4,1.2-8.2,3.1-10,6.5l2.4-.2c3.2-4.1,10.9-5.3,15.5-6.3a106.2,106.2,0,0,1,18.6-2.3c5.9-.2,12.3-.2,18,1.1a7.7,7.7,0,0,1,4.6,3.4l2.6-.2A11.2,11.2,0,0,0,191.8,25.9Z" style="fill:#8080f1"/><path d="M125.1,33.7C83.6,33.2,41.8,31.9.7,38.3L.4,40.3C36.9,34.6,74,35,110.9,35.5l15.2-1.1A1,1,0,0,0,125.1,33.7Z" style="fill:#8080f1"/><path d="M202.1,13.3c.2,2.3,2.5,2.5,4.3,2.7h2.5l-.3-2c-2.1-.1-3.8-.6-3.6-1.9s1.4-1,3.2-1.3l-.3-2.1C204.4,9.8,201.9,11.1,202.1,13.3Z" style="fill:#8080f1"/><path d="M120,8.5c-.3,2.7,2.3,3.1,4.4,3.4,5.2.6,10.5.7,15.6.8,11.2.2,22.5-.4,33.7-1.1l16.3-1.2c3.6-.3,7.6,0,10.3-2.8a1,1,0,0,0-.3-1.6C188.4.5,175,7.3,163,4L164.9,3l-4.1.3-.5.5a1,1,0,0,0,.3,1.6c11.8,4.2,25.4-2.5,37.1,1.8C194.7,8.7,190,8.3,187,8.5l-11.5.8c-8,.5-16,1-24.1,1.2s-16.5.1-24.8-.5l-2.9-.2q-.8-2.9,1.4-3.3l1.4-.7-5.3.4A3.3,3.3,0,0,0,120,8.5Z" style="fill:#8080f1"/></g><polygon points="206.6 0 208.6 2.2 212.2 29.4 210.6 28.4 206.6 0" style="fill:#4949e7"/><path d="M25.2,22.3l4-.3a2.6,2.6,0,0,1,3,2.4c.1,1.4-.7,3.5-3.6,3.7l-2.3.2-.5,3.3h-2Zm5,2.4a1.1,1.1,0,0,0-1.3-1H27l-.4,2.6h2.1A1.5,1.5,0,0,0,30.2,24.7Z" style="fill:#f8fafb"/><path d="M36.6,27.5H35L34.5,31h-2l1.4-9.5,4-.3A2.7,2.7,0,0,1,41,23.8a3.2,3.2,0,0,1-2.4,3.4l1.5,3.4-2.2.2Zm2.3-3.3a1.1,1.1,0,0,0-1.3-1h-2l-.4,2.6h2.1A1.5,1.5,0,0,0,38.9,24.1Z" style="fill:#f8fafb"/><path d="M46.7,20.6c2.6-.2,4.7,1.3,4.9,3.8a5.4,5.4,0,0,1-5,5.9c-2.6.2-4.7-1.3-4.9-3.9A5.4,5.4,0,0,1,46.7,20.6Zm0,1.8a3.4,3.4,0,0,0-3,3.8,2.5,2.5,0,0,0,2.8,2.4,3.4,3.4,0,0,0,3-3.8A2.5,2.5,0,0,0,46.7,22.4Z" style="fill:#f8fafb"/><path d="M61.3,22.2l-3.6,7.1h-.9l-1.6-6.7-1,6.9h-2l1.4-9.5,2.7-.2,1.4,5.9,3.2-6.2,2.9-.2L62.3,29h-2Z" style="fill:#f8fafb"/><path d="M69.3,19c2.6-.2,4.7,1.3,4.9,3.8a5.4,5.4,0,0,1-5,5.9c-2.6.2-4.7-1.3-4.9-3.9A5.4,5.4,0,0,1,69.3,19Zm0,1.8a3.4,3.4,0,0,0-3,3.8,2.5,2.5,0,0,0,2.8,2.4,3.4,3.4,0,0,0,3-3.8A2.5,2.5,0,0,0,69.3,20.7Z" style="fill:#f8fafb"/><path d="M77.7,20.3l-2.7.2.3-1.8,7.4-.5-.3,1.8-2.7.2-1.1,7.7h-2Z" style="fill:#f8fafb"/><path d="M84,18.1h2l-1.4,9.5h-2Z" style="fill:#f8fafb"/><path d="M91.6,17.4c2.6-.2,4.7,1.3,4.9,3.8a5.4,5.4,0,0,1-5,5.9c-2.6.2-4.7-1.3-4.9-3.9A5.4,5.4,0,0,1,91.6,17.4Zm0,1.8a3.4,3.4,0,0,0-3,3.8,2.5,2.5,0,0,0,2.8,2.4,3.4,3.4,0,0,0,3-3.8A2.5,2.5,0,0,0,91.6,19.1Z" style="fill:#f8fafb"/><path d="M100,19.7l-1,6.7h-2L98.5,17h2l3.4,6.2,1-6.5h2l-1.4,9.5h-1.9Z" style="fill:#f8fafb"/><path d="M112.2,16.1l6.6-.5-.3,1.7-4.6.3-.3,2.1,4.5-.3-.3,1.7-4.5.3-.3,2.2,4.6-.3-.2,1.7-6.6.5Z" style="fill:#f8fafb"/><path d="M123.2,21.3l-2.8,3.5L118,25l4.1-5.2-2.5-4.3,2.2-.2,1.7,3,2.5-3.3,2.5-.2-3.9,5,2.7,4.5-2.2.2Z" style="fill:#f8fafb"/><path d="M131.6,16.4l-2.7.2.3-1.8,7.4-.5-.3,1.8-2.7.2L132.5,24h-2Z" style="fill:#f8fafb"/><path d="M137.8,14.2l6.6-.5-.3,1.7-4.6.3-.3,2.1,4.5-.3-.3,1.7-4.5.3-.3,2.2,4.6-.3-.2,1.7-6.6.5Z" style="fill:#f8fafb"/><path d="M147.5,16.3l-1,6.7h-2l1.4-9.5h2l3.4,6.2,1-6.5h2l-1.4,9.5H151Z" style="fill:#f8fafb"/><path d="M164.1,16.4c.2,2.4-1.3,5.4-5.7,5.7l-3.7.3,1.4-9.5,3.6-.3A4,4,0,0,1,164.1,16.4Zm-2.1.3a2.3,2.3,0,0,0-2.5-2.2h-1.6l-.9,5.9h1.6A3.4,3.4,0,0,0,162,16.7Z" style="fill:#f8fafb"/><path d="M166.2,12.2l6.6-.5-.3,1.7-4.6.3-.3,2.1,4.5-.3-.3,1.7-4.5.3-.3,2.2,4.6-.3-.2,1.7-6.6.5Z" style="fill:#f8fafb"/><path d="M182.2,15.1c.2,2.4-1.3,5.4-5.7,5.7l-3.7.3,1.4-9.5,3.6-.3A4,4,0,0,1,182.2,15.1Zm-2.1.3a2.3,2.3,0,0,0-2.5-2.2H176l-.9,5.9h1.6A3.4,3.4,0,0,0,180.2,15.4Z" style="fill:#f8fafb"/><path d="M184,18.2a1,1,0,0,1,1.1,1,1.2,1.2,0,0,1-1.1,1.3,1,1,0,0,1-1.1-1A1.3,1.3,0,0,1,184,18.2Zm.1-7.3,2.1-.2L185,17.2h-1.6Z" style="fill:#f8fafb"/><path d="M9.3,17.5a1.5,1.5,0,0,0-1.6-1H7.2a1.3,1.3,0,0,0-.7,2,1.8,1.8,0,0,0,1.8.8A1.3,1.3,0,0,0,9.3,17.5Z" style="fill:#4949e7"/><path d="M203.5,3.6a1.5,1.5,0,0,0-1.6-1h-.5a1.3,1.3,0,0,0-.7,2,1.8,1.8,0,0,0,1.8.8A1.3,1.3,0,0,0,203.5,3.6Z" style="fill:#4949e7"/><path d="M10.3,38.3a1.5,1.5,0,0,0-1.6-1H8.2a1.3,1.3,0,0,0-.7,2,1.8,1.8,0,0,0,1.8.8A1.3,1.3,0,0,0,10.3,38.3Z" style="fill:#4949e7"/><path d="M205,24.4a1.5,1.5,0,0,0-1.6-1h-.5a1.3,1.3,0,0,0-.7,2,1.8,1.8,0,0,0,1.8.8A1.3,1.3,0,0,0,205,24.4Z" style="fill:#4949e7"/></g></svg>